<svg xmlns="http://www.w3.org/2000/svg" width="234.367" height="99.203" viewBox="0 0 234.367 99.203"><defs><style>.a{fill:#fff;}</style></defs><g transform="translate(-0.05)"><g transform="translate(0.05)"><path class="a" d="M21.272,78.683c5.118-2.81,15.868-3.259,27.414-.46,12.916,3.123,99.84.354,112.443.714a3.961,3.961,0,0,1,3.878,3.571c0,.118,0,.236,0,.36,0,2.952-6.151,7.361-9.953,7.361,0,0,4.776-5.006,2.828-7.875,0,0-130.224.218-151.711,11.9,0,0-4.723,1.854-6.116-5.75-.183-1.3,3.89-4.079,10.75-6.671C24.867,25.024,61.472,0,63.975,0c5.006,0,5.9,2.78,5.9,2.78S75.9,2.037,75.9,7.231c0,7.5-9.445,9.823-9.445,9.823,2.952-5.472,2.952-8.9,2.952-8.9C37.559,29.84,25.327,63.205,21.272,78.683Z" transform="translate(-0.05)"/><path class="a" d="M115.072,71.3c-6.116,11.31-14.829,24.286-28.925,24.286-11.4,0-17.887-5.1-17.887-13.164,0-15.384,17.981-24.746,24.469-24.746a8.831,8.831,0,0,1,7.969,4.174s3.8.649,3.8,5.466c0,5.9-7.5,14.368-17.048,14.368-6.027,0-7.786-3.8-8.341-6.771A8.385,8.385,0,0,0,76.69,80.85c0,3.985,2.5,6.859,9.551,6.859,14.168,0,25.384-18.164,25.384-18.164Zm-33.388.466c1.181,4.445,7.674,2.5,10.939.832a7.558,7.558,0,0,0,4.262-8.264C90.7,64.362,85.415,67.786,81.684,71.771Z" transform="translate(-27.995 -23.631)"/><path class="a" d="M191.011,70.583c-2.225,3.9-13.164,24.38-24.563,24.38a9.758,9.758,0,0,1-8.713-9.917c0-6.582,11.682-20.761,11.682-20.761-25.49,16.588-25.384,30.7-28.642,30.7-3.89,0-5.561-3.247-6.116-4.723-.738-.189-3.43-1.393-3.43-7.509,0-13.07,15.39-26.6,18.075-26.6,7.6,0,6.21,6.21,6.21,6.21-5.75,3.335-10.756,11.31-12.792,17.237C151.9,66.9,166.448,56.8,172.2,56.8c1.771,0,2.408.649,3.335,1.854,2.314,0,3.985,2.952,3.985,4.723,0,5.094-14.758,21.594-7.6,21.594,5.189,0,15.661-16.127,15.661-16.127Z" transform="translate(-53.792 -23.004)"/><path class="a" d="M247.957,67.236a1.576,1.576,0,0,0,.927.277c8.53,0,20.661-16.871,20.661-16.871l3.43,1.771c-3.613,7.414-14.758,24.374-24.557,24.374-6.493,0-10.289-3.335-10.195-9.64-5.378,5.189-11.122,9.734-14.829,9.734-6.116,0-7.231-4.723-7.231-4.723-1.665,0-3.613-3.8-3.613-7.231,0-11.3,16.865-26.228,24.929-26.228a15.546,15.546,0,0,1,11.493,5.1c1.021-1.576,2.131-3.341,3.43-5.1C266.31,18.671,275.484,12,282.621,12c3.89,0,5.189,2.408,5.189,2.408s3.613.372,3.613,5.189c0,7.786-18.719,15.939-30.862,24.557,0,.094-.089.189-.183.283C254.445,53.057,246.292,65.288,247.957,67.236Zm-3.43-16.222c.555-1.015,1.116-1.942,1.771-2.952a7.432,7.432,0,0,0-5.283-2.043c-13.164,0-23.447,23.453-18.164,23.453C228.866,69.461,240.171,56.274,244.527,51.014Zm24.563-18.07c13.624-8.158,15.567-13.9,14.917-14.451C283.27,17.9,277.243,22.933,269.091,32.944Z" transform="translate(-87.108 -4.916)"/><path class="a" d="M317.624,100.309C309.472,117.458,300.2,122,296.679,122c-3.613,0-10.195-1.576-10.006-10.283-2.875-6.954,8.707-12.792,22.521-16.871.738-1.3,1.387-2.591,2.131-3.985-2.952,2.32-5.933,3.9-8.713,3.9a6.4,6.4,0,0,1-6.3-4.079s-3.613-.649-3.613-7.509c0-13.07,15.384-26.6,17.981-26.6,7.674,0,6.3,6.21,6.3,6.21-9.634,5.561-15.567,19.929-11.488,23.264,3.707,0,8.8-5.006,13.341-10.661.283-.649,10.106-19.74,15.85-19.74,4.357,0,10.035,6.116,8.158,6.21-5.655.277-13.624,11.865-21.505,29.84,15.478-5.372,26.789-24.374,26.789-24.374l3.542,1.771C342.464,87.983,330.876,95.587,317.624,100.309Zm-14.457,4.823c-11.582,4.817-13.436,10.472-6.582,6.948C298.533,111.065,300.853,108.467,303.167,105.132Z" transform="translate(-117.294 -22.795)"/></g></g></svg>